<svg width="64" height="64" viewBox="0 0 64 64" fill="none" xmlns="http://www.w3.org/2000/svg">
  <defs>
    <linearGradient id="paletteGrad" x1="0%" y1="0%" x2="100%" y2="100%">
      <stop offset="0%" stop-color="#F59E0B" />
      <stop offset="100%" stop-color="#D97706" />
    </linearGradient>
    <filter id="glowPalette" x="-20%" y="-20%" width="140%" height="140%">
      <feGaussianBlur stdDeviation="3" result="blur" />
      <feComposite in="SourceGraphic" in2="blur" operator="over" />
    </filter>
  </defs>
  <circle cx="32" cy="32" r="32" fill="#FFFBEB" />
  <path d="M32 14c-9.9 0-18 7.2-18 16s8.1 16 18 16c2 0 4-1.3 4-3.6 0-1-.4-1.9-1.1-2.6-.7-.7-1.1-1.7-1.1-2.8 0-2.2 1.8-4 4-4h2.7c6.1 0 11.5-4.5 11.5-10.4C51 21.2 42.5 14 32 14zm-7.6 15.3c-2 0-3.6-1.6-3.6-3.6s1.6-3.6 3.6-3.6 3.6 1.6 3.6 3.6-1.6 3.6-3.6 3.6zm7.2-7.2c-2 0-3.6-1.6-3.6-3.6s1.6-3.6 3.6-3.6 3.6 1.6 3.6 3.6-1.6 3.6-3.6 3.6zm9 0c-2 0-3.6-1.6-3.6-3.6s1.6-3.6 3.6-3.6 3.6 1.6 3.6 3.6-1.6 3.6-3.6 3.6z" fill="url(#paletteGrad)" filter="url(#glowPalette)"/>
</svg>
