<svg width="64" height="64" viewBox="0 0 64 64" fill="none" xmlns="http://www.w3.org/2000/svg">
  <defs>
    <linearGradient id="rocketGrad" x1="0%" y1="0%" x2="100%" y2="100%">
      <stop offset="0%" stop-color="#F43F5E" />
      <stop offset="100%" stop-color="#E11D48" />
    </linearGradient>
    <filter id="glowRocket" x="-20%" y="-20%" width="140%" height="140%">
      <feGaussianBlur stdDeviation="3" result="blur" />
      <feComposite in="SourceGraphic" in2="blur" operator="over" />
    </filter>
  </defs>
  <circle cx="32" cy="32" r="32" fill="#FFF1F2" />
  <path d="M43.7 18.3c-.6-1-1.6-1.7-2.7-2.1-5.7-1.7-12.8 1.4-16.7 5.3L22 23.8l-5.6-1.1c-1.3-.3-2.6.4-3.1 1.7-.5 1.2-.1 2.6.9 3.3l5.5 4.3-3.2 5.5c-1 1.8.3 4 2.4 4h5.6v5.6c0 2.1 2.2 3.4 4 2.4l5.5-3.2 4.3 5.5c.7 1 2.1 1.4 3.3.9 1.3-.5 2-1.8 1.7-3.1l-1.1-5.6 2.3-2.3c3.9-3.9 7-11 5.3-16.7-.4-1.1-1-2.1-2.1-2.7zm-9 12.1c-1.7 0-3.1-1.4-3.1-3.1 0-1.7 1.4-3.1 3.1-3.1 1.7 0 3.1 1.4 3.1 3.1 0 1.7-1.4 3.1-3.1 3.1z" fill="url(#rocketGrad)" filter="url(#glowRocket)"/>
</svg>
